<?xml version="1.0" encoding="utf-8"?>
<!-- Generator: Adobe Illustrator 16.0.0, SVG Export Plug-In . SVG Version: 6.00 Build 0)  -->
<!DOCTYPE svg PUBLIC "-//W3C//DTD SVG 1.1//EN" "http://www.w3.org/Graphics/SVG/1.1/DTD/svg11.dtd">
<svg version="1.1" id="Layer_1" xmlns="http://www.w3.org/2000/svg" xmlns:xlink="http://www.w3.org/1999/xlink" x="0px" y="0px"
	 width="250px" height="60px" viewBox="0 0 250 60" enable-background="new 0 0 250 60" xml:space="preserve">
<g>
	<path fill="#FFFFFF" d="M28.126,29.539c3.61-1.921,8.91-6.22,8.91-12.135c0-8.063-7.45-14.283-16.511-14.283H2.631
		c-0.846,0-1.46,0.691-1.46,1.458v50.84c0,0.768,0.614,1.461,1.46,1.461h19.045c9.138,0,16.741-6.223,16.741-14.824
		C38.417,34.992,32.196,31.229,28.126,29.539z M12.895,14.449h5.99c2.917,0,5.375,2.151,5.375,5.22c0,3.072-2.458,5.53-5.375,5.53
		h-5.99V14.449z M19.883,46.164h-6.988V35.182h6.221c2.993,0,6.296,2.307,6.296,5.379C25.412,43.709,22.875,46.164,19.883,46.164z"
		/>
	<path fill="#FFFFFF" d="M77.581,3.121H45.788c-0.845,0-1.458,0.691-1.458,1.458v50.84c0,0.768,0.613,1.461,1.458,1.461h31.792
		c0.847,0,1.461-0.693,1.461-1.461v-8.371c0-0.768-0.615-1.459-1.461-1.459l-21.271-0.012V35.223h17.51
		c0.769,0,1.46-0.615,1.46-1.461v-8.371c0-0.768-0.691-1.457-1.46-1.457h-17.51v-9.523h21.271c0.847,0,1.461-0.691,1.461-1.46V4.58
		C79.042,3.812,78.427,3.121,77.581,3.121z"/>
	<path fill="#FFFFFF" d="M151.686,3.121h-9.215c-0.77,0-1.459,0.691-1.459,1.458v50.84c0,0.768,0.689,1.461,1.459,1.461h9.215
		c0.766,0,1.457-0.693,1.457-1.461V4.58C153.143,3.812,152.451,3.121,151.686,3.121z"/>
	<path fill="#FFFFFF" d="M130.186,3.121h-9.215c-0.846,0-1.46,0.691-1.46,1.458v27.262h-0.076L88.792,2.352h-1.921
		c-0.768,0-1.458,0.615-1.458,1.382l0.077,51.686c0,0.768,0.691,1.461,1.458,1.461h9.141c0.844,0,1.458-0.693,1.458-1.461V26.774
		h0.078l30.334,30.49c0.154,0.154,0.766,0.385,1,0.385h1.227c0.77,0,1.459-0.615,1.459-1.387V4.58
		C131.645,3.812,130.955,3.121,130.186,3.121z"/>
	<path fill="#FFFFFF" d="M221.182,2.352c-15.357,0-27.568,12.365-27.568,27.724c0,15.36,12.211,27.573,27.568,27.573
		c15.361,0,27.646-12.213,27.646-27.573C248.828,14.717,236.543,2.352,221.182,2.352z M220.924,45.629
		c-8.371,0-15.283-6.912-15.283-15.284c0-8.449,6.912-15.436,15.283-15.436c8.449,0,15.361,6.987,15.361,15.436
		C236.285,38.717,229.373,45.629,220.924,45.629z"/>
	<path fill="#FFFFFF" d="M193.998,4.58c0-0.768-0.613-1.458-1.459-1.458h-34.098c-0.844,0-1.461,0.691-1.461,1.458v8.372
		c0,0.769,0.617,1.46,1.461,1.46h10.984V55.42c0,0.768,0.689,1.461,1.455,1.461h9.217c0.768,0,1.459-0.693,1.459-1.461V14.411
		h10.982c0.846,0,1.459-0.691,1.459-1.46V4.58z"/>
</g>
</svg>
